<svg xmlns="http://www.w3.org/2000/svg" viewBox="0 0 64 64" fill="none" stroke="currentColor" stroke-width="2" stroke-linecap="round" stroke-linejoin="round">
  <!-- Ring floor (perspective) -->
  <path d="M4 40 L32 56 L60 40 L32 24 Z"/>

  <!-- Corner posts -->
  <line x1="4" y1="40" x2="4" y2="20"/>
  <line x1="60" y1="40" x2="60" y2="20"/>
  <line x1="32" y1="24" x2="32" y2="4"/>
  <line x1="32" y1="56" x2="32" y2="36"/>

  <!-- Top ropes (3 levels) -->
  <path d="M4 22 L32 6 L60 22"/>
  <path d="M4 26 L32 10 L60 26"/>
  <path d="M4 30 L32 14 L60 30"/>

  <!-- Bottom ropes (3 levels) -->
  <path d="M4 34 L32 50 L60 34"/>
  <path d="M32 42 L60 26"/>
  <path d="M4 26 L32 42"/>

  <!-- Post caps -->
  <circle cx="4" cy="18" r="2"/>
  <circle cx="60" cy="18" r="2"/>
  <circle cx="32" cy="2" r="2"/>
  <circle cx="32" cy="34" r="2"/>
</svg>
