<svg xmlns="http://www.w3.org/2000/svg" viewBox="0 0 64 64" fill="none" stroke="currentColor" stroke-width="2" stroke-linecap="round" stroke-linejoin="round">
  <!-- Left Glove -->
  <path d="M8 28c0-8 6-14 14-14h2c4 0 7 3 7 7v6c0 4-3 7-7 7h-2c-8 0-14 6-14 14v4c0 2 2 4 4 4h16c2 0 4-2 4-4V28" fill="none"/>
  <ellipse cx="18" cy="38" rx="6" ry="8"/>

  <!-- Right Glove -->
  <path d="M56 28c0-8-6-14-14-14h-2c-4 0-7 3-7 7v6c0 4 3 7 7 7h2c8 0 14 6 14 14v4c0 2-2 4-4 4H36c-2 0-4-2-4-4V28" fill="none"/>
  <ellipse cx="46" cy="38" rx="6" ry="8"/>

  <!-- Wrist straps -->
  <rect x="12" y="48" width="12" height="4" rx="1"/>
  <rect x="40" y="48" width="12" height="4" rx="1"/>
</svg>
