<svg xmlns="http://www.w3.org/2000/svg" viewBox="0 0 64 64" fill="none" stroke="currentColor" stroke-width="2" stroke-linecap="round" stroke-linejoin="round">
  <!-- Ceiling mount -->
  <line x1="32" y1="4" x2="32" y2="12"/>
  <rect x="26" y="2" width="12" height="4" rx="1"/>

  <!-- Chain -->
  <ellipse cx="32" cy="14" rx="2" ry="2"/>
  <ellipse cx="32" cy="18" rx="2" ry="2"/>

  <!-- Bag top cap -->
  <path d="M22 22h20c2 0 4 2 4 4v2H18v-2c0-2 2-4 4-4z"/>

  <!-- Bag body -->
  <path d="M18 28h28v28c0 4-6 8-14 8s-14-4-14-8V28z"/>

  <!-- Bag segments -->
  <line x1="18" y1="36" x2="46" y2="36"/>
  <line x1="18" y1="44" x2="46" y2="44"/>
  <line x1="18" y1="52" x2="46" y2="52"/>
</svg>
